<svg width="24.000000000000004" height="24.000000000000004" xmlns="http://www.w3.org/2000/svg">

 <g>
  <title>Layer 1</title>
  <path d="m49.5,193.5c0,0 0,1 0,2c0,5 0,11 0,25c0,13 -0.43709,27.03333 1,43c1.53445,17.04834 4.95568,27.76141 10,50c2.47318,10.90335 6.38643,25.15701 10,38c1.713,6.08817 3,8 4,9c0,0 0,0 0,-2c0,-3 0,-6 0,-9c0,-6 -0.26452,-17.03 1,-27c1.65496,-13.0484 5,-27 8,-41c3,-14 6.38042,-27.90326 9,-39c2.34303,-9.92523 4.1169,-17.96765 6,-25c1.0665,-3.98279 2.49346,-6.87856 3,-10c0.32037,-1.97418 0.4588,-2.69344 1,-4c0.38268,-0.92387 1,-2 1,-2c0,-1 1,-1 1,-1c0,0 0.48626,-0.17625 1,2c0.4595,1.9465 0.49346,3.87856 1,7c0.80091,4.93544 3,17 7,30c4,13 8.48483,28.82648 14,45c4.38989,12.87357 7.15121,24.29501 11,34c3.29727,8.31433 5.93919,15.02475 8,20c2.91443,7.03607 4.49345,9.87857 5,13c0.16019,0.98709 1,1 1,2c0,0 1,0 1,-1c0,0 0,-1 0,-3c0,-2 0,-3 0,-6c0,-4 0.09882,-9.98828 1,-18c1.12335,-9.98691 4.17984,-27.07245 6,-43c2.07188,-18.13028 4.18411,-29.97301 6,-43c1.11307,-7.98505 2.49904,-19.95332 3,-28c0.37282,-5.9884 1,-12 2,-15l0,-2l0,-1" id="svg_9" stroke="#000" fill="none"/>
  <path d="m218.5,186.5c0,0 0,3 0,7c0,4 0,10 0,14c0,5 0,10 0,14c0,5 1,12 1,16c0,5 0,9 0,13c0,3 -0.64073,6.05164 0,10c0.50655,3.12143 0.35927,6.05164 1,10c0.50655,3.12143 1.49756,7.92578 2,13c0.29561,2.98541 1.49623,7.90778 2,12c0.36655,2.97751 0.63345,7.02249 1,10c0.50377,4.09222 1.67964,8.02582 2,10c0.50655,3.12143 1.49345,5.87857 2,9c0.32036,1.97418 -0.4595,5.0535 0,7c0.51375,2.17624 1,3 1,5c0,3 0,5 0,6c0,1 0,2 0,2c0,1 0,1 0,1l0,1" id="svg_10" stroke="#000" fill="none"/>
  <path d="m295.5,333.5c0,0 0,-3 0,-11c0,-11 0,-21 0,-35c0,-12 0,-23 0,-34c0,-23 0,-33 0,-41c0,-6 0,-10 0,-12c0,-2 0,-2 0,-4c0,-1 -0.4595,-3.0535 0,-5c0.51373,-2.17625 1,-4 1,-5c0,0 0,0 0,0c1,0 0.83981,0.01291 1,1c0.50653,3.12144 1.75565,5.01498 2,7c0.50378,4.09221 2.6712,7.2126 6,12c3.65543,5.25717 7.62485,12.19885 12,20c4.61472,8.22827 10.07315,16.95526 18,30c6.05609,9.96613 10.83469,19.08554 14,25c3.80423,7.10828 7.37134,11.74673 10,16c2.35114,3.80423 4,8 6,11c2,3 3.69254,7.186 5,9c0.8269,1.14728 2.29291,2.29291 3,3c0.70709,0.70709 1,1 1,2c0,0 0.61731,0.07611 1,1c0.5412,1.30655 1.69254,2.186 3,4c0.8269,1.14728 2,2 2,2c1,0 1,0 1,-1c0,-1 -1,-3 -1,-5c0,-1 -1,-3 -1,-7c0,-6 -2.09882,-18.98828 -3,-27c-1.12335,-9.98691 -2.49939,-18.96262 -3,-29c-0.54794,-10.98634 -1.49756,-28.9258 -2,-34c-0.29562,-2.9854 -0.20605,-9.97365 -1,-17c-1.35205,-11.96545 -1,-17 -1,-23c0,-4 0,-7 0,-9c0,-1 0,-2 0,-2l0,0" id="svg_11" stroke="#000" fill="none"/>
  <path d="m451.5,171.5c0,1 0,2 0,3c0,9 0,18 0,28c0,10 0,18 0,27c0,9 0,19 0,28c0,10 0,24 0,33c0,8 -0.55301,16.01529 0,26c0.50076,9.04153 0.58759,18.01703 1,23c0.50171,6.06204 1.49347,10.87857 2,14c0.48056,2.96127 0,4 0,4c0,0 0,0 0,0l0,-1l0,0l-1,-1" id="svg_12" stroke="#000" fill="none"/>
  <path d="m523.5,187.5c0,0 0.38269,1.07613 0,2c-1.6236,3.91969 -8.06024,6.9503 -13,13c-4.0498,4.95976 -7.19028,8.88152 -9,12c-2.24469,3.868 -6.34546,9.80833 -9,15c-3.4671,6.78079 -4.75531,10.132 -7,14c-1.80972,3.11848 -4.34619,4.70546 -6,7c-1.30746,1.814 -3,4 -5,6c-2,2 -3.21167,3.71411 -6,6c-3.28101,2.68979 -5.74673,5.37134 -10,8c-1.9021,1.17557 -3,2 -3,2c-1,0 0,0 0,0c1,0 2.02676,-0.22977 3,0c4.35251,1.0275 7.19556,4.8118 12,10c6.26422,6.76459 13.2738,13.73651 20,21c6.26422,6.76459 15.51703,15.53165 20,21c4.57178,5.57666 7.72961,10.22885 12,15c3.77271,4.21509 7,7 9,9c2,2 3,3 3,4l1,0l0,0l0,0" id="svg_14" stroke="#000" fill="none"/>
  <path d="m562.5,288.5c0,0 0,2 0,5c0,4 0,7 0,11c0,3 0,9 0,12c0,4 0,6 0,8c0,1 0,2 0,2c0,1 0,0 0,0c0,-1 0.38269,-3.07611 0,-4c-0.5412,-1.30655 -1,-3 -1,-5c0,-2 0,-4 0,-5c0,-2 0,-4 0,-7c0,-3 -0.91901,-7.10699 0,-11c1.02747,-4.35251 2.71411,-7.21167 5,-10c0.89661,-1.09366 2,-2 4,-2c2,0 5,-1 8,-1c3,0 5,0 6,0c1,0 1,0 1,1l0,0" id="svg_15" stroke="#000" fill="none"/>
  <path d="m601.5,280.5c0,0 0,0 0,2c0,2 0,12 0,17c0,5 0,7 0,8c0,1 0,2 1,3c1,1 2,1 3,1c2,0 2,0 3,0c1,0 1.69257,-1.186 3,-3c0.8269,-1.14728 1.14429,-1.93414 2,-4c1.21014,-2.92157 2.28857,-5.86829 4,-10c1.21014,-2.92157 1,-9 2,-13c1,-4 1,-9 1,-11c0,-2 0,-3 0,-3c0,1 0,2 0,5c0,2 0.09546,4.97736 1,9c1.11865,4.97479 1.22528,12.16946 4,23c1.56964,6.12668 3.34314,10.87604 5,16c1.26855,3.9231 3,6 4,7l0,1l0,0" id="svg_16" stroke="#000" fill="none"/>
  <path d="m644.5,284.5c1,0 1,0 1,1c0,2 0,3 0,5c0,1 0,2 0,2c0,0 0,-1 0,-2c0,0 0,0 0,0c0,0 -0.30743,1.186 1,3c0.8269,1.14728 1,3 2,6c1,3 1.51947,7.03873 2,10c0.50653,3.12143 2,6 2,8c0,2 0,4 0,5c0,0 -0.4588,0.30655 -1,-1c-0.76538,-1.84775 -0.81091,-4.01804 -1,-5c-1.01837,-5.28799 -3.49951,-15.96597 -4,-27c-0.36249,-7.99179 0,-15 0,-20c0,-3 -0.9021,-5.82443 1,-7c0.85065,-0.52573 1.82373,-0.48627 4,-1c2.91974,-0.68927 5,0 7,0c2,0 4.34619,1.70547 6,4c2.61493,3.62799 5.17755,7.91446 8,14c3.20435,6.90884 8.37671,14.88733 10,21c1.30878,4.92819 2.11584,8.96384 3,12c1.15277,3.95868 1,6 2,8l0,1l0,0" id="svg_17" stroke="#000" fill="none"/>
  <path d="m694.5,270.5c0,1 0,1 0,5c0,4 0,8 0,13c0,8 0,11 0,17c0,5 0,8 0,11c0,1 0,2 0,3c0,0 0,0 0,0c0,-2 0,-4 0,-6c0,-2 0,-6 0,-12c0,-8 0.80615,-16.03043 2,-23c0.8609,-5.02582 0.56952,-8.133 2,-12c0.77582,-2.09717 1.4588,-3.69345 2,-5c0.38269,-0.92389 1,-1 1,-1c1,0 2,0 3,1c1,1 1.61731,2.07611 2,3c0.5412,1.30655 2.1731,2.85272 3,4c1.30743,1.814 1.84723,5.04132 3,9c0.88416,3.03616 2.54895,6.81403 4,12c1.63904,5.85779 2.76135,12.04468 4,18c0.8396,4.03671 3,9 4,14l1,2l0,3l0,1" id="svg_18" stroke="#000" fill="none"/>
  <path d="m731.5,292.5c0,0 1,0 1,0c2,-1 2.4588,-0.69345 3,-2c0.38269,-0.92389 1,-2 1,-5c0,-2 1,-5 1,-8c0,-2 0.76538,-3.15225 0,-5c-0.5412,-1.30655 -1,-2 -2,-2c-1,0 -2,0 -3,0c-1,0 -1.07611,-0.38269 -2,0c-1.30658,0.5412 -1.4588,1.69345 -2,3c-0.76538,1.84775 0,3 0,4c0,1 -0.22974,3.02676 0,4c0.51373,2.17624 1.21655,6.13748 3,14c1.39905,6.16788 3.33197,11.22937 5,15c1.45862,3.29733 2.69257,5.186 4,7c0.8269,1.14728 3.02673,1.77023 4,2c2.17627,0.51373 3,2 4,2c1,0 1.29291,0.70709 2,0c0.70709,-0.70709 0,-2 0,-2l0,-1" id="svg_19" stroke="#000" fill="none"/>
  <path d="m758.5,272.5c0,0 0,0 0,1c0,1 -0.63904,3.14221 1,9c1.45105,5.18597 2.04871,10.28912 4,15c1.37976,3.33109 2.51947,7.03873 3,10c0.50653,3.12143 1.54047,5.0535 2,7c0.51373,2.17624 0,3 1,3c1,0 0.38269,-1.07611 0,-2c-0.5412,-1.30655 -0.92914,-3.0025 -1,-4c-0.50128,-7.05328 -1,-14 -1,-20c0,-7 -0.64075,-12.05164 0,-16c0.50653,-3.12143 2.1731,-5.85272 3,-7c1.30743,-1.814 2.18604,-1.69254 4,-3c1.14728,-0.8269 2,-1 2,-1c1,0 1,0 1,0l1,1" id="svg_20" stroke="#000" fill="none"/>
  <polyline stroke-linecap="round" id="svg_21" points="855.5,173.5 855.5,173.5 " stroke="#000" fill="none"/>
  <text xml:space="preserve" text-anchor="start" font-family="Noto Sans JP" font-size="16" id="svg_22" y="17.16949" x="6.32203" stroke-width="0" stroke="#000" fill="#000000">R</text>
 </g>
</svg>